<svg xmlns="http://www.w3.org/2000/svg" viewBox="0 0 60 57">
  <path d="M21 27c0-3.213 1.692-6.11 4.53-7.755 1.43-.828 1.923-2.66 1.092-4.095L19.107 2.136c-.4-.696-1.053-1.197-1.82-1.398-.772-.207-1.588-.096-2.28.303C5.746 6.394 0 16.345 0 27c0 1.66 1.34 3 3 3h15c1.66 0 3-1.34 3-3zM44.99 1.038c-.695-.4-1.508-.507-2.276-.303-.77.204-1.428.705-1.824 1.398L33.375 15.15c-.825 1.434-.336 3.264 1.095 4.095C37.308 20.89 39 23.79 39 27c0 1.66 1.34 3 3 3h15c1.66 0 3-1.34 3-3 0-10.653-5.75-20.607-15.01-25.962zM36.75 34.452c-.774-.21-1.587-.1-2.28.3-2.865 1.66-6.08 1.66-8.943 0-.69-.4-1.512-.51-2.277-.3-.77.204-1.428.705-1.824 1.398L13.91 48.864c-.824 1.434-.335 3.267 1.096 4.098C19.57 55.605 24.756 57 30 57s10.428-1.395 14.99-4.038c1.432-.828 1.927-2.664 1.096-4.098L38.57 35.85c-.398-.693-1.052-1.19-1.82-1.398z"/>
  <circle cx="30" cy="27.003" r="6"/>
</svg>
