<svg xmlns="http://www.w3.org/2000/svg" viewBox="0 0 48 60">
  <circle cx="30" cy="30.003" r="3"/>
  <circle cx="18" cy="30.003" r="3"/>
  <path d="M45 12.003c-10.32 0-18.522-10.698-18.603-10.803-1.134-1.5-3.66-1.5-4.794 0-.08.108-8.283 10.803-18.603 10.803-1.66 0-3 1.344-3 3v21c0 11.42 20.29 22.434 22.6 23.655.437.23.92.345 1.4.345.48 0 .96-.114 1.4-.345C27.715 58.438 48 47.424 48 36.003v-21c0-1.656-1.34-3-3-3zm-12 25.89v4.11c0 1.656-1.34 3-3 3H18c-1.66 0-3-1.344-3-3v-4.11c-1.923-2.184-3-4.986-3-7.89 0-6.618 5.385-12 12-12s12 5.382 12 12c0 2.904-1.077 5.706-3 7.89z"/>
</svg>
