<svg xmlns="http://www.w3.org/2000/svg" viewBox="0 0 60 60">
  <path d="M30.003 60.006c3.12 0 5.88-1.62 7.5-4.02 1.62 2.4 4.38 4.02 7.5 4.02 4.95 0 9-4.05 9-9v-9l3.96-3c1.2-.423 2.04-1.56 2.04-2.853v-6.147c0-16.533-13.47-29.988-30-30.006C13.47.018 0 13.47 0 30.006v6.147c0 1.293.84 2.43 2.04 2.853l3.96 3v9c0 4.95 4.05 9 9 9 3.12 0 5.88-1.62 7.5-4.02 1.62 2.4 4.38 4.02 7.5 4.02h.003zM18 33.006c-3.312 0-6-2.688-6-6s2.688-6 6-6 6 2.688 6 6-2.688 6-6 6zm6 12l6-9 6 9H24zm18-12c-3.312 0-6-2.688-6-6s2.688-6 6-6 6 2.688 6 6-2.688 6-6 6z" />
</svg>
